<?xml version="1.0" standalone="no"?>
<!DOCTYPE svg PUBLIC "-//W3C//DTD SVG 20010904//EN"
 "http://www.w3.org/TR/2001/REC-SVG-20010904/DTD/svg10.dtd">
<svg version="1.0" xmlns="http://www.w3.org/2000/svg"
 width="330.000000pt" height="330.000000pt" viewBox="0 0 330.000000 330.000000"
 preserveAspectRatio="xMidYMid meet">
<metadata>
Created by potrace 1.14, written by Peter Selinger 2001-2017
</metadata>
<g transform="translate(0.000000,330.000000) scale(0.100000,-0.100000)"
fill="#000000" stroke="none">
<path d="M1167 3140 c-19 -16 -42 -30 -52 -30 -27 0 -14 -42 21 -65 l31 -21
-24 -18 c-24 -17 -25 -17 -38 1 -8 10 -15 20 -15 23 0 3 -4 11 -9 19 -7 11
-13 10 -34 -4 -27 -17 -27 -35 -1 -66 12 -13 10 -18 -15 -36 -35 -27 -48 -95
-25 -130 25 -38 44 -29 44 21 0 27 7 52 18 65 28 35 216 140 229 128 9 -10
-20 -32 -99 -72 -49 -26 -68 -41 -68 -55 0 -21 34 -29 45 -10 3 5 16 15 28 21
22 12 22 12 4 -9 -11 -11 -16 -26 -12 -31 3 -6 -9 -20 -28 -31 -18 -11 -40
-32 -48 -46 -12 -23 -12 -28 6 -41 54 -41 131 -55 158 -28 8 7 18 34 21 59 4
25 14 50 23 54 8 5 13 18 11 28 -2 14 -13 20 -41 22 -40 3 -46 12 -22 32 8 7
15 18 15 25 0 14 53 45 76 45 23 0 26 21 8 42 -16 17 -28 19 -76 16 l-58 -4
25 32 c31 40 31 58 3 78 -33 24 -63 19 -101 -14z m63 -1 c0 -6 -10 -29 -21
-51 l-22 -42 -15 38 c-15 38 -14 40 7 57 21 18 51 16 51 -2z m-171 -215 c-13
-14 -25 -20 -27 -14 -5 15 17 40 36 40 12 0 10 -6 -9 -26z m201 -135 c0 -31
-15 -39 -70 -39 -69 0 -64 34 8 66 51 22 62 18 62 -27z"/>
<path d="M1966 3123 c-3 -3 -6 -18 -6 -31 0 -14 -5 -40 -12 -58 -9 -27 -19
-34 -54 -43 -58 -15 -64 -14 -64 7 0 10 -11 29 -25 42 -21 20 -25 21 -25 6 0
-9 -7 -28 -16 -41 -22 -34 -14 -67 19 -83 24 -12 34 -11 68 2 22 9 46 16 55
16 27 0 5 -19 -34 -30 -21 -5 -46 -16 -57 -25 -20 -15 -20 -15 6 -39 l27 -23
-32 -14 c-33 -15 -47 -46 -25 -59 7 -5 35 -6 63 -3 35 4 64 0 90 -11 52 -21
76 -21 76 3 0 24 -19 39 -58 47 -41 8 -40 16 3 40 40 21 44 39 14 70 -34 36
-18 64 36 64 54 0 63 13 30 42 -15 13 -23 28 -20 39 11 35 -37 103 -59 82z
m-79 -284 c-8 -5 -22 -6 -31 -3 -27 11 -17 21 15 16 24 -4 28 -7 16 -13z"/>
<path d="M2570 2836 c-41 -13 -118 -41 -170 -63 -52 -22 -103 -43 -114 -46
-15 -6 -16 -10 -5 -23 10 -12 23 -14 51 -10 29 5 38 3 38 -8 0 -7 9 -25 21
-40 l20 -26 -30 0 c-33 0 -47 -24 -36 -60 5 -14 15 -20 38 -20 18 0 48 -8 67
-18 27 -13 34 -22 32 -40 -5 -32 24 -39 53 -12 20 19 22 26 14 49 -6 14 -18
34 -27 44 -16 18 -15 19 18 15 25 -2 35 1 37 12 6 28 -21 50 -80 65 -62 16
-102 34 -94 41 3 3 29 -2 58 -11 148 -45 140 -44 146 -28 10 25 -19 62 -56 74
-53 17 -56 24 -15 37 35 10 39 9 69 -21 29 -29 34 -42 39 -102 11 -115 15
-131 46 -174 54 -74 80 -40 40 51 -11 25 -27 76 -35 114 -9 38 -25 84 -36 102
-24 41 -24 40 3 44 30 4 33 22 6 51 l-23 26 -75 -23z m-85 -106 c4 -6 -6 -10
-22 -10 -22 0 -25 2 -13 10 19 12 27 12 35 0z m15 -170 c0 -17 -3 -18 -25 -8
-27 12 -24 28 6 28 12 0 19 -7 19 -20z"/>
<path d="M423 2778 c-43 -9 -59 -28 -24 -28 31 0 43 -62 19 -100 -11 -17 -9
-23 10 -42 17 -17 24 -20 34 -10 20 20 26 14 33 -29 7 -38 34 -79 53 -79 5 0
30 27 56 60 57 74 91 94 113 65 7 -11 13 -36 11 -55 -3 -29 -11 -40 -57 -72
-76 -53 -85 -47 -23 15 29 29 52 56 52 60 0 4 -13 7 -30 7 -24 0 -39 -11 -81
-62 -28 -35 -62 -75 -75 -90 -33 -38 -32 -60 3 -56 19 2 36 15 52 41 18 27 31
37 51 37 40 0 130 35 145 57 7 11 15 30 17 44 3 32 -12 111 -24 127 -15 18
-59 15 -96 -8 -40 -24 -44 -25 -41 -2 1 9 1 41 0 70 l-1 52 -39 0 c-24 0 -48
-8 -65 -21 -25 -20 -26 -20 -26 -1 0 26 -16 30 -67 20z m136 -110 c1 -12 -7
-18 -22 -18 -35 0 -39 10 -15 43 20 28 22 29 29 11 4 -10 8 -27 8 -36z m11
-83 c-7 -8 -16 -15 -21 -15 -5 0 -9 7 -9 15 0 9 9 15 21 15 18 0 19 -2 9 -15z"/>
<path d="M1440 2685 c-283 -47 -528 -172 -725 -370 -183 -184 -290 -375 -356
-639 -30 -116 -37 -368 -15 -496 48 -277 160 -499 351 -699 153 -159 323 -268
525 -335 145 -48 257 -66 420 -66 213 0 375 36 566 125 l91 42 44 -23 c24 -13
50 -23 57 -24 7 0 31 -9 55 -19 82 -37 214 -46 560 -38 114 3 118 4 144 31 23
26 25 33 20 87 -4 33 0 103 8 161 14 99 14 104 -6 137 -32 54 -212 203 -304
252 l-41 22 43 126 c59 175 76 290 70 471 -3 80 -12 178 -21 219 -115 523
-505 913 -1026 1026 -105 22 -353 28 -460 10z m1400 -862 c12 -32 34 -101 48
-153 23 -87 26 -113 26 -295 1 -162 -3 -215 -18 -282 l-19 -83 -242 0 c-181 0
-254 4 -291 14 -87 26 -227 48 -304 49 -55 0 -97 -6 -158 -26 -100 -32 -122
-33 -146 -6 -14 17 -24 20 -52 15 -30 -6 -34 -4 -34 14 0 11 21 41 48 68 26
26 60 68 76 94 24 38 57 66 86 73 65 15 140 74 140 111 0 9 7 23 16 31 19 20
11 78 -16 108 -10 11 -21 30 -25 43 -4 13 -14 22 -26 22 -10 0 -36 18 -56 40
-35 36 -43 40 -88 40 -28 0 -75 9 -105 20 -30 11 -69 20 -87 20 -45 0 -91 -42
-99 -90 -6 -36 -9 -39 -33 -34 -74 15 -169 -44 -180 -112 l-6 -39 -70 -11
c-81 -12 -95 -18 -95 -44 0 -34 27 -48 105 -55 41 -4 75 -11 75 -15 0 -4 15
-10 33 -13 112 -19 126 -34 78 -90 -17 -19 -31 -44 -31 -56 0 -12 -10 -35 -22
-51 -14 -20 -21 -44 -21 -75 l0 -45 -473 0 -472 0 -16 68 c-54 240 -35 524 51
740 l25 62 1178 0 1179 0 21 -57z m-1173 -134 c9 -9 8 -19 -3 -40 -8 -16 -12
-29 -10 -29 3 0 13 14 21 31 12 23 21 29 33 23 9 -4 46 -10 82 -13 l65 -6 0
-33 c0 -29 2 -32 21 -28 14 4 24 0 28 -9 4 -10 -2 -15 -17 -16 -22 -2 -22 -2
1 -6 35 -7 26 -46 -13 -54 l-30 -6 24 -10 c22 -9 22 -10 6 -17 -17 -6 -17 -7
0 -26 18 -20 17 -20 -61 -21 -72 -1 -76 -2 -41 -11 21 -6 36 -15 34 -22 -6
-18 -56 -19 -84 -1 -14 10 -22 12 -18 5 4 -7 -1 -14 -14 -17 -17 -4 -19 -8
-10 -19 20 -24 0 -64 -71 -139 -38 -40 -72 -85 -76 -100 -9 -34 17 -91 46
-100 18 -6 19 -9 8 -22 -11 -14 -10 -16 15 -10 83 21 84 21 63 5 -18 -14 -18
-15 10 -21 43 -8 150 8 219 34 117 44 302 22 575 -67 228 -75 432 -186 588
-320 33 -28 33 -30 23 -74 -6 -25 -14 -107 -17 -182 l-7 -137 -291 3 c-240 2
-301 5 -351 20 -100 28 -160 61 -227 123 -42 39 -88 69 -138 91 -209 92 -219
99 -198 136 8 14 7 17 -3 14 -8 -3 -15 -15 -17 -27 -3 -17 -8 -20 -25 -15 -18
6 -20 4 -11 -7 6 -8 30 -39 53 -69 25 -31 38 -56 32 -58 -20 -7 -121 61 -170
114 -25 27 -59 77 -76 110 l-30 59 -3 -37 c-2 -21 -7 -38 -12 -38 -26 0 -146
189 -185 294 -37 99 -34 137 16 191 39 42 40 45 18 45 l-23 0 26 28 c62 64 56
121 -16 152 -24 11 -90 25 -147 32 l-104 12 80 16 c101 20 112 26 89 51 -14
16 -15 23 -6 45 13 27 81 63 120 64 28 0 78 -25 85 -42 2 -7 4 18 3 55 -1 61
2 71 23 88 26 21 81 25 98 8z"/>
<path d="M1775 1555 c-27 -14 -39 -22 -25 -19 29 7 90 34 90 40 0 8 -17 3 -65
-21z"/>
<path d="M2346 771 l-26 -49 -66 -7 -66 -8 43 -43 43 -44 -12 -57 c-6 -31 -10
-59 -7 -61 2 -2 28 7 57 21 l54 24 50 -28 c27 -16 52 -29 56 -29 4 0 5 26 2
58 l-7 59 47 39 c51 42 49 48 -27 58 -46 7 -49 10 -75 62 -14 30 -29 54 -32
54 -4 0 -19 -22 -34 -49z"/>
</g>
</svg>
